<svg data-v-70b83f88="" version="1.0" xmlns="http://www.w3.org/2000/svg" xmlns:xlink="http://www.w3.org/1999/xlink" width="100%" height="100%" viewBox="0 0 340.000000 250.000000" preserveAspectRatio="xMidYMid meet" color-interpolation-filters="sRGB" style="margin: auto;"> <rect data-v-70b83f88="" x="0" y="0" width="100%" height="100%" fill="#000000" fill-opacity="1" class="background"></rect> <rect data-v-70b83f88="" x="0" y="0" width="100%" height="100%" fill="url(#watermark)" fill-opacity="1" class="watermarklayer"></rect> <g data-v-70b83f88="" fill="#F5F5F5" class="bordersvg b-d1" transform="translate(55.962432861328125,44.999999046325684)"><path fill-opacity="0" stroke="#F5F5F5" stroke-width="5" fill="#000000" d="M 42.94107593878401 43.32181930541992 A 80 80 0 0 1 185.13405833855973 43.32181930541992"></path> <path fill-opacity="0" stroke="#F5F5F5" stroke-width="5" fill="#000000" d="M 42.94107593878401 116.67818069458008 A 80 80 0 0 0 185.13405833855973 116.67818069458008"></path> <path fill-opacity="0" stroke="#F5F5F5" stroke-width="3" fill="#000000" d="M 57.94107593878401 43.32181930541992 A 65 65 0 0 1 170.13405833855973 43.32181930541992"></path> <path fill-opacity="0" stroke="#F5F5F5" stroke-width="3" fill="#000000" d="M 57.94107593878401 116.67818069458008 A 65 65 0 0 0 170.13405833855973 116.67818069458008"></path> <g transform="translate(0,43.32181930541992)"><g><rect data-gra="graph-name-bg" stroke-width="2" class="i-icon-bg" x="0" y="0" width="228.07513427734375" height="73.35636138916016" fill-opacity="0"></rect> <!----> <!----> </g> <g transform="translate(0,3)"><g data-gra="path-name" fill-rule="" class="tp-name" transform="translate(0,0)"><g transform="scale(1)"><g><path d="M29.97-10.22C29.6-7.37 28.04-4.79 26.05-3.12 23.89-1.29 21.36-0.27 19.05-0.27 15.71-0.27 13.29-1.51 11.41-4.14 9.26-7.1 8.13-12.11 8.13-18.83 8.13-25.45 9.26-30.51 11.35-33.58 13.13-36.16 15.44-37.4 18.35-37.4 24.59-37.4 25.35-32.18 25.35-29.76 25.35-28.68 24.54-27.28 23.19-27.01 23.19-25.67 24.81-24.27 26.64-24.27 29.92-24.27 31.05-27.28 31.05-29.22 31.05-32.34 27.88-38.53 17.65-38.48 13.35-38.48 9.15-36.65 6.24-33.63 2.69-29.97 0.91-24.97 0.91-18.83 0.91-12.65 2.74-7.7 6.3-4.09 9.36-0.97 13.67 0.81 18.35 0.81 21.79 0.81 24.97-0.38 27.23-2.31 29.76-4.47 31.21-7.21 31.53-10.22ZM51.23-24.22C48-26.48 43.21-23.84 41.01-19.05L41.01-24.75 31.43-24.75 31.43-24.27 33.04-23.95C34.39-23.68 35.3-22.55 35.3-21.15L35.3-3.61C35.3-2.21 34.39-1.08 33.04-0.81L31.43-0.48 31.43 0 44.88 0 44.88-0.48 43.27-0.81C41.92-1.08 41.01-2.21 41.01-3.61L41.01-16.95C42.62-20.56 44.4-21.79 46.66-20.45 48-19.64 48.65-18.08 48.11-16.79 49.19-16.04 51.61-16.57 52.63-18.08 54.46-20.83 52.85-23.09 51.23-24.22ZM73.13-10.66C71.3-10.66 69.69-9.26 69.69-7.91 71.03-7.64 71.84-6.24 71.84-5.17 71.84-2.74 69.53-0.54 67.05-0.59 61.89-0.7 59.63-8.13 60.38-15.07L77.49-15.07C77.06-17.92 75.99-20.34 74.16-22.23 72.11-24.32 69.04-25.56 65.81-25.56 62.59-25.56 59.52-24.32 57.53-22.23 55.16-19.75 53.92-16.47 53.92-12.38 53.92-8.39 55.21-5.17 57.8-2.69 60.06-0.38 63.5 0.86 67.05 0.75 72.49 0.86 77.55-2.31 77.55-6.24 77.55-8.18 76.42-10.66 73.13-10.66ZM65.55-24.38C66.84-24.38 67.86-23.68 68.77-22.28 69.58-21.04 70.12-19.1 70.39-16.52L60.59-16.52C61.08-19.91 62.48-24.38 65.55-24.38ZM102.84-22.12C100.79-24.27 97.83-25.56 94.87-25.56 92.02-25.56 89.33-24.22 87.72-22.23L87.72-24.75 78.14-24.75 78.14-24.27 79.75-23.95C81.1-23.68 82.01-22.55 82.01-21.15L82.01 9.31C82.01 10.71 81.1 11.84 79.75 12.11L78.14 12.43 78.14 12.92 91.59 12.92 91.59 12.43 89.98 12.11C88.63 11.84 87.72 10.71 87.72 9.31L87.72-1.4C89.12 0 91.59 0.81 94.23 0.81 97.46 0.81 100.52-0.48 102.73-2.69 105.21-5.17 106.44-8.39 106.44-12.38 106.44-16.14 105.21-19.48 102.84-22.12ZM92.88-1.35C91.11-1.35 89.01-2.37 87.82-4.31L87.82-19C88.79-21.09 91-23.41 93.47-23.41 97.4-23.41 99.12-17.7 99.12-12.38 99.12-6.78 97.4-1.35 92.88-1.35ZM127.7-10.66C125.87-10.66 124.26-9.26 124.26-7.91 125.6-7.64 126.41-6.24 126.41-5.17 126.41-2.74 124.09-0.54 121.62-0.59 116.45-0.7 114.19-8.13 114.95-15.07L132.06-15.07C131.63-17.92 130.55-20.34 128.72-22.23 126.68-24.32 123.61-25.56 120.38-25.56 117.15-25.56 114.09-24.32 112.09-22.23 109.73-19.75 108.49-16.47 108.49-12.38 108.49-8.39 109.78-5.17 112.36-2.69 114.62-0.38 118.07 0.86 121.62 0.75 127.05 0.86 132.11-2.31 132.11-6.24 132.11-8.18 130.98-10.66 127.7-10.66ZM120.11-24.38C121.4-24.38 122.43-23.68 123.34-22.28 124.15-21.04 124.69-19.1 124.96-16.52L115.16-16.52C115.65-19.91 117.04-24.38 120.11-24.38ZM168.71-18.83L168.06-18.94C167.52-17.17 165.8-16.95 164.67-16.95 161.93-16.95 159.5-19.7 155.9-19.64 153.26-19.59 151.16-18.03 150.41-15.66 150.19-15.07 150.09-14.37 150.09-13.61L150.73-13.51C151.65-14.8 152.99-15.39 154.5-15.44 158.48-15.34 161.55-12.05 161.55-7.8 161.55-3.12 156.33-0.27 150.73-0.27 144.87-0.27 141.37-3.18 141.37-10.22 141.37-17.49 144.92-20.45 150.41-20.45L151.7-20.45 151.7-21.53 150.41-21.53C145.24-21.53 142.88-23.95 142.88-29.6 142.88-34.82 146.7-37.67 150.95-37.67 155.63-37.67 157.84-35.14 157.84-33.1 157.84-30.46 155.79-29.87 154.5-29.87 154.23-29.87 154.01-29.87 153.85-29.92 153.85-28.79 154.71-25.88 157.57-25.88 160.26-25.88 162.09-27.93 162.09-30.84 162.09-33.42 159.4-38.53 150.95-38.48 144.27-38.48 137.39-35.95 137.39-29.6 137.39-24.38 141.48-21.79 147.18-20.99 140.35-20.13 135.23-16.63 135.23-10.22 135.23-3.28 142.07 0.81 150.09 0.81 161.17 0.86 165.15-5.33 165.15-11.03 165.15-11.68 165.05-12.32 164.89-12.97 167.15-13.56 169.3-15.5 168.71-18.83ZM170.11-18.83C170.11-12.75 171.88-7.75 175.33-4.09 178.23-1.02 182.81 0.81 187 0.81 190.82 0.81 194.59-0.7 197.07-3.12 200.03-5.97 201.59-9.63 201.59-14.26L201.59-18.83 189.75-18.83 189.75-17.22 195.13-17.22 195.13-14.26C195.13-9.2 194.21-5.33 192.55-3.01 190.93-0.81 188.89 0 187 0 184.58 0 182.11-1.29 180.38-3.87 178.34-6.89 177.26-12.05 177.26-18.83 177.26-25.4 178.39-30.51 180.49-33.58 182.32-36.16 184.64-37.4 187.49-37.4 193.73-37.4 194.48-32.18 194.48-29.76 194.48-28.68 193.68-27.28 192.33-27.01 192.33-25.67 193.94-24.27 195.77-24.27 199.06-24.27 200.19-27.28 200.19-29.22 200.19-32.34 197.01-38.53 186.79-38.48 182.48-38.48 178.28-36.65 175.38-33.63 171.88-29.92 170.11-24.97 170.11-18.83ZM217.57-25.51C214.18-25.83 211-24.81 208.64-22.82 205.89-20.61 204.28-17.44 203.95-13.45 203.58-9.53 204.6-6.13 206.91-3.5 208.96-1.13 211.92 0.48 215.31 0.75 218.59 1.02 221.87 0 224.35-1.94 227.04-4.25 228.6-7.32 228.92-11.3 229.25-15.23 228.33-18.62 226.07-21.31 223.97-23.68 220.91-25.24 217.57-25.51ZM215.36-24.7C216.76-24.81 218.16-24.27 219.67-22.44 221.17-20.45 222.25-17.11 222.63-12.92 222.95-8.72 222.52-5.22 221.34-3.07 220.21-0.97 218.91-0.16 217.52-0.05 216.12 0.05 214.72-0.48 213.26-2.37 211.7-4.25 210.63-7.59 210.25-11.84 209.93-16.09 210.36-19.53 211.6-21.74 212.67-23.79 213.96-24.59 215.36-24.7Z" transform="translate(-0.9100000262260437, 38.48036193847656)"></path></g> <!----> <!----> <!----> <!----> <!----> <!----> <!----></g></g> <g data-gra="path-slogan" fill-rule="" class="tp-slogan" transform="translate(56.412567138671875,57.400360107421875)"><!----> <!----> <g transform="scale(1, 1)"><g transform="scale(1)"><path d="M1.04-7.87L1.04-3.25C1.04-2.62 1.12-2.09 1.26-1.66C1.40-1.22 1.60-0.87 1.85-0.61C2.11-0.34 2.41-0.15 2.75-0.03C3.10 0.09 3.48 0.14 3.88 0.14C4.28 0.14 4.65 0.09 4.99-0.03C5.34-0.15 5.63-0.34 5.89-0.61C6.14-0.87 6.34-1.22 6.48-1.66C6.62-2.09 6.70-2.62 6.70-3.25L6.70-7.87L5.74-7.87L5.74-3.23C5.74-2.76 5.69-2.36 5.59-2.04C5.50-1.72 5.36-1.46 5.20-1.27C5.03-1.08 4.83-0.94 4.61-0.86C4.38-0.77 4.14-0.73 3.88-0.73C3.62-0.73 3.38-0.77 3.16-0.86C2.93-0.94 2.74-1.08 2.57-1.27C2.41-1.46 2.28-1.72 2.18-2.04C2.09-2.36 2.04-2.76 2.04-3.23L2.04-7.87ZM8.82-7.87L8.82 0L9.77 0L9.77-4.12C9.77-4.53 9.75-4.95 9.73-5.36C9.70-5.77 9.67-6.18 9.64-6.58L9.68-6.58L10.54-4.96L13.39 0L14.42 0L14.42-7.87L13.48-7.87L13.48-3.80C13.48-3.39 13.49-2.97 13.52-2.54C13.55-2.11 13.57-1.70 13.60-1.30L13.55-1.30L12.70-2.93L9.85-7.87ZM16.58-7.87L16.58 0L21.24 0L21.24-0.85L17.58-0.85L17.58-3.71L20.57-3.71L20.57-4.56L17.58-4.56L17.58-7.03L21.12-7.03L21.12-7.87ZM24.88-3.94C24.88-3.30 24.96-2.72 25.13-2.21C25.31-1.71 25.55-1.28 25.85-0.93C26.16-0.58 26.53-0.32 26.95-0.13C27.37 0.05 27.82 0.14 28.32 0.14C28.82 0.14 29.27 0.04 29.66-0.16C30.06-0.36 30.41-0.64 30.72-1.00L30.16-1.61C29.90-1.33 29.63-1.11 29.35-0.96C29.06-0.81 28.73-0.73 28.34-0.73C27.97-0.73 27.63-0.81 27.33-0.96C27.03-1.11 26.78-1.33 26.57-1.61C26.36-1.89 26.20-2.23 26.08-2.62C25.97-3.02 25.91-3.46 25.91-3.96C25.91-4.45 25.97-4.89 26.09-5.28C26.21-5.67 26.38-6.01 26.59-6.28C26.81-6.56 27.07-6.77 27.37-6.92C27.68-7.07 28.02-7.14 28.39-7.14C28.73-7.14 29.02-7.07 29.27-6.94C29.53-6.81 29.76-6.63 29.96-6.41L30.53-7.04C30.30-7.30 30.00-7.53 29.64-7.72C29.28-7.92 28.86-8.02 28.38-8.02C27.88-8.02 27.41-7.92 26.98-7.73C26.55-7.55 26.18-7.28 25.87-6.92C25.56-6.57 25.32-6.14 25.14-5.64C24.96-5.14 24.88-4.57 24.88-3.94ZM33.18-4.14L33.18-7.07L34.50-7.07C35.12-7.07 35.59-6.96 35.92-6.76C36.24-6.55 36.41-6.18 36.41-5.66C36.41-5.15 36.24-4.77 35.92-4.52C35.59-4.27 35.12-4.14 34.50-4.14ZM36.50 0L37.63 0L35.64-3.43C36.18-3.57 36.60-3.82 36.92-4.19C37.24-4.56 37.40-5.05 37.40-5.66C37.40-6.07 37.34-6.42 37.20-6.70C37.06-6.98 36.87-7.20 36.63-7.38C36.39-7.56 36.09-7.68 35.75-7.76C35.41-7.83 35.04-7.87 34.64-7.87L32.18-7.87L32.18 0L33.18 0L33.18-3.32L34.61-3.32ZM39.16-7.87L39.16 0L43.81 0L43.81-0.85L40.15-0.85L40.15-3.71L43.14-3.71L43.14-4.56L40.15-4.56L40.15-7.03L43.69-7.03L43.69-7.87ZM39.85-8.47L40.66-8.47L41.46-9.29L41.51-9.29L42.31-8.47L43.12-8.47L41.96-9.82L41.00-9.82ZM45.48-7.87L45.48 0L46.48 0L46.48-3.12L47.89-3.12C48.32-3.12 48.72-3.17 49.07-3.27C49.43-3.37 49.74-3.52 49.99-3.72C50.25-3.92 50.45-4.17 50.59-4.48C50.73-4.78 50.80-5.14 50.80-5.56C50.80-5.99 50.73-6.35 50.59-6.65C50.45-6.94 50.25-7.18 50.00-7.36C49.75-7.54 49.44-7.67 49.08-7.75C48.72-7.83 48.32-7.87 47.89-7.87ZM47.77-3.94L46.48-3.94L46.48-7.07L47.77-7.07C48.45-7.07 48.96-6.96 49.30-6.74C49.63-6.52 49.80-6.12 49.80-5.56C49.80-5.00 49.63-4.59 49.30-4.33C48.97-4.07 48.46-3.94 47.77-3.94ZM52.39-7.87L52.39 0L57.05 0L57.05-0.85L53.39-0.85L53.39-3.71L56.38-3.71L56.38-4.56L53.39-4.56L53.39-7.03L56.93-7.03L56.93-7.87ZM61.14-7.87L61.14 0L65.80 0L65.80-0.85L62.14-0.85L62.14-3.71L65.12-3.71L65.12-4.56L62.14-4.56L62.14-7.03L65.68-7.03L65.68-7.87ZM69.10-7.03L69.10 0L70.10 0L70.10-7.03L72.48-7.03L72.48-7.87L66.72-7.87L66.72-7.03ZM79.22 0.14C79.72 0.14 80.17 0.05 80.59-0.14C81.00-0.34 81.35-0.61 81.65-0.97C81.95-1.32 82.19-1.75 82.35-2.26C82.51-2.77 82.60-3.34 82.60-3.97C82.60-4.60 82.51-5.16 82.35-5.66C82.19-6.16 81.95-6.58 81.65-6.93C81.35-7.28 81.00-7.55 80.59-7.73C80.17-7.92 79.72-8.02 79.22-8.02C78.73-8.02 78.27-7.92 77.86-7.74C77.45-7.56 77.10-7.29 76.80-6.94C76.50-6.59 76.27-6.17 76.11-5.67C75.95-5.17 75.86-4.60 75.86-3.97C75.86-3.34 75.95-2.77 76.11-2.26C76.27-1.75 76.50-1.32 76.80-0.97C77.10-0.61 77.45-0.34 77.86-0.14C78.27 0.05 78.73 0.14 79.22 0.14ZM79.22-0.73C78.87-0.73 78.55-0.81 78.27-0.96C77.99-1.11 77.74-1.33 77.54-1.61C77.33-1.90 77.18-2.24 77.06-2.63C76.95-3.03 76.90-3.48 76.90-3.97C76.90-4.46 76.95-4.90 77.06-5.29C77.18-5.68 77.33-6.02 77.54-6.29C77.74-6.56 77.99-6.77 78.27-6.92C78.55-7.07 78.87-7.14 79.22-7.14C79.58-7.14 79.89-7.07 80.18-6.92C80.46-6.77 80.71-6.56 80.91-6.29C81.11-6.02 81.27-5.68 81.38-5.29C81.50-4.90 81.55-4.46 81.55-3.97C81.55-3.48 81.50-3.03 81.38-2.63C81.27-2.24 81.11-1.90 80.91-1.61C80.71-1.33 80.46-1.11 80.18-0.96C79.89-0.81 79.58-0.73 79.22-0.73ZM84.29-7.87L84.29 0L85.24 0L85.24-4.12C85.24-4.53 85.22-4.95 85.19-5.36C85.17-5.77 85.14-6.18 85.10-6.58L85.15-6.58L86.00-4.96L88.86 0L89.89 0L89.89-7.87L88.94-7.87L88.94-3.80C88.94-3.39 88.96-2.97 88.99-2.54C89.01-2.11 89.04-1.70 89.06-1.30L89.02-1.30L88.16-2.93L85.32-7.87ZM95.75-3.05L95.75 0L96.76 0L96.76-3.05L99.12-7.87L98.08-7.87L97.07-5.65C96.95-5.36 96.82-5.08 96.68-4.80C96.55-4.52 96.41-4.23 96.28-3.94L96.23-3.94C96.09-4.23 95.96-4.52 95.84-4.80C95.72-5.08 95.60-5.36 95.47-5.65L94.45-7.87L93.38-7.87ZM102.16-3.94C102.16-3.30 102.24-2.72 102.42-2.21C102.60-1.71 102.84-1.28 103.15-0.93C103.46-0.58 103.84-0.32 104.27-0.13C104.70 0.05 105.18 0.14 105.70 0.14C106.22 0.14 106.70 0.06 107.12-0.11C107.54-0.29 107.88-0.50 108.13-0.77L108.13-4.08L105.55-4.08L105.55-3.25L107.22-3.25L107.22-1.20C107.06-1.06 106.85-0.94 106.60-0.86C106.35-0.77 106.08-0.73 105.80-0.73C105.38-0.73 105.01-0.81 104.68-0.96C104.36-1.11 104.09-1.33 103.87-1.61C103.65-1.89 103.48-2.23 103.36-2.62C103.25-3.02 103.19-3.46 103.19-3.96C103.19-4.45 103.25-4.89 103.37-5.28C103.50-5.67 103.67-6.01 103.90-6.28C104.12-6.56 104.39-6.77 104.71-6.92C105.03-7.07 105.39-7.14 105.79-7.14C106.19-7.14 106.52-7.07 106.78-6.93C107.04-6.79 107.27-6.62 107.47-6.41L108.04-7.04C107.80-7.28 107.51-7.51 107.14-7.71C106.78-7.91 106.32-8.02 105.78-8.02C105.25-8.02 104.77-7.92 104.33-7.73C103.89-7.55 103.51-7.28 103.18-6.92C102.86-6.57 102.61-6.14 102.43-5.64C102.25-5.14 102.16-4.57 102.16-3.94ZM112.92 0.14C113.42 0.14 113.87 0.05 114.28-0.14C114.69-0.34 115.05-0.61 115.35-0.97C115.65-1.32 115.88-1.75 116.05-2.26C116.21-2.77 116.29-3.34 116.29-3.97C116.29-4.60 116.21-5.16 116.05-5.66C115.88-6.16 115.65-6.58 115.35-6.93C115.05-7.28 114.69-7.55 114.28-7.73C113.87-7.92 113.42-8.02 112.92-8.02C112.42-8.02 111.97-7.92 111.56-7.74C111.15-7.56 110.79-7.29 110.50-6.94C110.20-6.59 109.97-6.17 109.81-5.67C109.64-5.17 109.56-4.60 109.56-3.97C109.56-3.34 109.64-2.77 109.81-2.26C109.97-1.75 110.20-1.32 110.50-0.97C110.79-0.61 111.15-0.34 111.56-0.14C111.97 0.05 112.42 0.14 112.92 0.14ZM112.92-0.73C112.57-0.73 112.25-0.81 111.97-0.96C111.68-1.11 111.44-1.33 111.23-1.61C111.03-1.90 110.87-2.24 110.76-2.63C110.65-3.03 110.59-3.48 110.59-3.97C110.59-4.46 110.65-4.90 110.76-5.29C110.87-5.68 111.03-6.02 111.23-6.29C111.44-6.56 111.68-6.77 111.97-6.92C112.25-7.07 112.57-7.14 112.92-7.14C113.27-7.14 113.59-7.07 113.87-6.92C114.16-6.77 114.40-6.56 114.61-6.29C114.81-6.02 114.97-5.68 115.08-5.29C115.19-4.90 115.25-4.46 115.25-3.97C115.25-3.48 115.19-3.03 115.08-2.63C114.97-2.24 114.81-1.90 114.61-1.61C114.40-1.33 114.16-1.11 113.87-0.96C113.59-0.81 113.27-0.73 112.92-0.73Z" transform="translate(-1.044, 9.816)"></path></g></g></g></g></g></g><defs v-gra="od"></defs></svg>